<?xml version="1.0" standalone="no"?>
<!DOCTYPE svg PUBLIC "-//W3C//DTD SVG 1.1//EN" "http://www.w3.org/Graphics/SVG/1.1/DTD/svg11.dtd" >
<svg xmlns="http://www.w3.org/2000/svg">
<metadata></metadata>
<defs>
<font id="gasparbold" horiz-adv-x="729" >
<font-face units-per-em="2048" ascent="1638" descent="-410" />
<missing-glyph horiz-adv-x="538" />
<glyph unicode="&#xfb01;" horiz-adv-x="1230" d="M90 780v174h119v164q0 138 84.5 219.5t230.5 81.5q79 0 170 -33l-45 -169q-47 16 -88 16q-117 0 -117 -148v-131h615v-780q68 -8 106 -20l-41 -154h-362l-41 154q34 11 104 20v606h-381v-606q73 -8 113 -20l-41 -154h-371l-41 154q36 11 105 20v606h-119zM791 1231 q0 63 44 107t107 44t107.5 -44t44.5 -107t-44.5 -107.5t-107.5 -44.5t-107 44.5t-44 107.5z" />
<glyph unicode="&#xfb02;" horiz-adv-x="1269" d="M90 780v174h119v164q0 138 85.5 219.5t231.5 81.5q163 0 326 -69v45h233v-1221q72 -9 105 -20l-41 -154h-363l-41 154q38 12 107 20v995q-134 64 -264 64q-79 0 -111.5 -36.5t-32.5 -111.5v-131h232l-47 -174h-185v-606q73 -8 113 -20l-41 -154h-371l-41 154 q36 11 105 20v606h-119z" />
<glyph horiz-adv-x="0" />
<glyph horiz-adv-x="682" />
<glyph unicode=" "  horiz-adv-x="538" />
<glyph unicode="&#x09;" horiz-adv-x="538" />
<glyph unicode="&#xa0;" horiz-adv-x="538" />
<glyph unicode="!" horiz-adv-x="684" d="M170 147q0 71 51 121.5t121 50.5q72 0 122 -50.5t50 -121.5q0 -72 -50 -122t-122 -50q-71 0 -121.5 50t-50.5 122zM217 1395h250l-31 -897h-188z" />
<glyph unicode="&#x22;" horiz-adv-x="892" d="M63 948l119 447h269l-242 -447h-146zM442 948l119 447h268l-241 -447h-146z" />
<glyph unicode="#" horiz-adv-x="1011" d="M66 291v147h145l51 369h-125v147h146l59 418h160l-60 -418h230l57 418h160l-58 -418h123v-147h-145l-51 -369h125v-147h-146l-49 -352h-160l50 352h-228l-51 -352h-160l51 352h-124zM371 438h227l51 369h-227z" />
<glyph unicode="$" horiz-adv-x="1026" d="M104 45v188l154 41q15 -50 21 -104q95 -25 172 -25q121 0 178 58.5t57 154.5q0 47 -19 80.5t-51.5 53.5t-74 35t-88 29t-92.5 31.5t-87.5 46.5t-74 68.5t-51.5 104t-19 147.5q0 134 83 221.5t212 106.5v158h176v-160q131 -16 285 -70v-178l-154 -41q-14 50 -20 105 q-82 20 -172 20q-74 0 -124 -42.5t-50 -117.5q0 -53 19 -91t51.5 -60t74 -38t88 -29.5t92.5 -29.5t87.5 -43t74 -65t51.5 -100t19 -144q0 -163 -87 -259t-235 -117v-158h-176v155q-161 8 -320 68z" />
<glyph unicode="%" horiz-adv-x="1650" d="M57 999q0 183 52 269q31 52 90.5 78t169.5 26t168.5 -25.5t91.5 -78.5q51 -85 51 -269q0 -181 -51 -268q-33 -53 -91.5 -78.5t-168.5 -25.5t-169.5 26t-90.5 78q-52 89 -52 268zM215 999q0 -104 27 -157q30 -64 127 -64t127 64q24 47 24 157q0 111 -24 158 q-30 64 -127 64t-127 -64q-27 -53 -27 -158zM326 -25l815 1397h184l-817 -1397h-182zM971 348q0 183 51 268q31 53 90.5 79t169.5 26q109 0 168 -26t92 -79q51 -85 51 -268q0 -181 -51 -268q-33 -53 -92 -79t-168 -26q-110 0 -169.5 26t-90.5 79q-51 87 -51 268zM1128 348 q0 -105 27 -158q29 -63 127 -63t127 63q25 49 25 158t-25 158q-29 63 -127 63t-127 -63q-27 -53 -27 -158z" />
<glyph unicode="&#x26;" horiz-adv-x="1187" d="M96 399q0 76 3 119t20.5 100.5t52.5 102.5q62 78 178 96q-61 96 -61 213q0 112 93 185t216 73q124 0 322 -61v-189l-154 -41q-14 43 -21 105q-51 14 -94 14q-49 0 -89 -37.5t-40 -89.5q0 -41 29 -98l475 -717q74 -8 113 -20l-41 -154h-201l-39 61q-239 -86 -416 -86 q-190 0 -274 103q-34 46 -50.5 104t-19 98.5t-2.5 118.5zM330 408q0 -164 69 -211q37 -25 93.5 -28t117.5 10t127 40l-274 428q-74 -21 -103.5 -77t-29.5 -162z" />
<glyph unicode="'" horiz-adv-x="514" d="M63 948l119 447h269l-242 -447h-146z" />
<glyph unicode="(" horiz-adv-x="776" d="M145 467q0 465 91 682q54 134 158 202t294 68v-178q-104 0 -164.5 -57t-89.5 -164q-49 -177 -49 -553q0 -378 49 -553q29 -104 88.5 -162.5t165.5 -58.5v-178q-190 0 -294 68t-158 202q-91 217 -91 682z" />
<glyph unicode=")" horiz-adv-x="776" d="M88 -307q106 0 165.5 58.5t88.5 162.5q49 175 49 553q0 376 -49 553q-29 107 -89.5 164t-164.5 57v178q190 0 293.5 -67.5t159.5 -202.5q90 -215 90 -682t-90 -682q-56 -135 -159.5 -202.5t-293.5 -67.5v178z" />
<glyph unicode="*" horiz-adv-x="1048" d="M152 1049l55 157l231 -90v256h164v-256l240 90l55 -157l-244 -80l154 -201l-137 -100l-152 211l-143 -211l-137 100l151 201z" />
<glyph unicode="+" horiz-adv-x="944" d="M31 414v176h354v354h176v-354h352v-176h-352v-353h-176v353h-354z" />
<glyph unicode="," horiz-adv-x="579" d="M84 -193l119 447h268l-242 -447h-145z" />
<glyph unicode="-" d="M86 401v201h557v-201h-557z" />
<glyph unicode="." horiz-adv-x="561" d="M129 127q0 63 44.5 107.5t107.5 44.5t107 -44.5t44 -107.5t-44 -107.5t-107 -44.5t-107.5 44.5t-44.5 107.5z" />
<glyph unicode="/" horiz-adv-x="935" d="M-16 -461l686 1880h188l-686 -1880h-188z" />
<glyph unicode="0" horiz-adv-x="1081" d="M68 664q0 333 77 491q47 97 138.5 147t257.5 50q165 0 256.5 -50t138.5 -147q78 -155 78 -491q0 -339 -78 -494q-47 -97 -138.5 -146t-256.5 -49q-166 0 -257.5 49t-138.5 146q-77 158 -77 494zM311 664q0 -255 37 -365q23 -71 67.5 -107t125.5 -36q80 0 123.5 36 t66.5 107q39 116 39 365q0 248 -39 364q-23 72 -66 107.5t-124 35.5t-125.5 -35.5t-67.5 -107.5q-37 -110 -37 -364z" />
<glyph unicode="1" horiz-adv-x="690" d="M125 154q37 11 104 20v979q-50 7 -104 23l41 151h295v-1153q70 -9 104 -20l-41 -154h-358z" />
<glyph unicode="2" horiz-adv-x="1042" d="M102 0v186l516 645q64 77 64 185q0 69 -36 101t-114 32q-114 0 -239 -37q-7 -69 -21 -113l-149 39v230q268 84 430 84q98 0 170.5 -27t114 -73.5t61 -103t19.5 -122.5q0 -99 -22 -169t-85 -157l-395 -491h524v-209h-838z" />
<glyph unicode="3" horiz-adv-x="1030" d="M82 1051v221q269 80 432 80t259.5 -79.5t96.5 -209.5q0 -54 -5 -94.5t-19.5 -85t-46.5 -78t-80 -55.5q109 -27 150.5 -116.5t41.5 -260.5q0 -398 -397 -398q-196 0 -410 62l43 162q72 -17 100 -23.5t81.5 -13t109.5 -6.5q67 0 114.5 21t71.5 56.5t34 72.5t10 79 q0 129 -49.5 193.5t-176.5 64.5h-200v186h223q85 0 130.5 52.5t45.5 128.5q0 72 -31 111.5t-123 39.5q-110 0 -235 -37q-7 -66 -21 -112z" />
<glyph unicode="4" horiz-adv-x="1064" d="M49 360v193l504 774h311v-774h152v-193h-152v-186q72 -9 105 -20l-41 -154h-363l-41 154q39 12 113 20v186h-588zM291 553h346v555z" />
<glyph unicode="5" horiz-adv-x="964" d="M106 23l44 163q124 -30 235 -30q66 0 113.5 21t71.5 56.5t34 72.5t10 79q0 129 -49 193.5t-176 64.5h-246v684h674v-262l-149 -39q-14 46 -21 113h-276v-303h123q101 0 173 -33t113 -96.5t59.5 -145t18.5 -188.5q0 -398 -397 -398q-171 0 -355 48z" />
<glyph unicode="6" horiz-adv-x="1036" d="M100 446v175q0 211 21 332.5t94 230.5q123 168 401 168q115 0 254 -33l-47 -182q-80 15 -131 20.5t-112.5 -1.5t-110.5 -32q-125 -64 -125 -321q152 33 246 33q102 0 174.5 -32.5t112.5 -93t57.5 -136t17.5 -173.5q0 -208 -101 -317t-327 -109q-212 0 -313 93 q-64 55 -86.5 147t-24.5 231zM340 362q0 -38 8.5 -70t28 -62t57.5 -47t92 -17q49 0 83.5 15.5t53.5 38t30 59.5t13.5 68.5t2.5 76.5q0 108 -37 161.5t-131 53.5q-89 0 -201 -39v-238z" />
<glyph unicode="7" horiz-adv-x="1007" d="M66 1065v262h837v-188l-424 -1139h-250l424 1139h-417q-7 -67 -21 -113z" />
<glyph unicode="8" horiz-adv-x="1003" d="M59 387q0 154 41 243.5t136 129.5q-134 65 -134 276q0 169 87.5 242.5t312.5 73.5q153 0 241 -34.5t123 -101t35 -180.5q0 -213 -133 -276q95 -40 135.5 -129.5t40.5 -243.5q0 -109 -21.5 -183.5t-72 -127t-136 -77t-212.5 -24.5q-168 0 -266 45.5t-137.5 133 t-39.5 233.5zM299 406q0 -126 45.5 -184t157.5 -58t157.5 58t45.5 184q0 131 -44.5 185t-158.5 54t-158.5 -54t-44.5 -185zM340 1004q0 -53 11.5 -87t36 -49.5t49.5 -20.5t65 -5t65 5t49.5 20.5t36 49.5t11.5 87q0 86 -36 124.5t-126 38.5t-126 -38.5t-36 -124.5z" />
<glyph unicode="9" horiz-adv-x="1030" d="M84 924q0 210 99 319t321 109q209 0 309 -92q62 -57 84.5 -149t24.5 -230v-176q0 -210 -21 -332t-94 -230q-117 -168 -393 -168q-123 0 -275 37l47 183q84 -16 136 -22.5t120 -1t117 31.5q123 61 123 321q-125 -32 -244 -32q-100 0 -170.5 32t-109.5 92t-56.5 135 t-17.5 173zM328 903q0 -109 35.5 -163t125.5 -54q86 0 193 39v240q0 38 -8 70t-27 61t-55.5 46t-87.5 17q-47 0 -80.5 -15.5t-51.5 -38t-28.5 -59t-13 -68t-2.5 -75.5z" />
<glyph unicode=":" horiz-adv-x="561" d="M129 127q0 63 44.5 107.5t107.5 44.5t107 -44.5t44 -107.5t-44 -107.5t-107 -44.5t-107.5 44.5t-44.5 107.5zM129 803q0 63 44.5 107t107.5 44t107 -44t44 -107t-44 -107.5t-107 -44.5t-107.5 44.5t-44.5 107.5z" />
<glyph unicode=";" horiz-adv-x="583" d="M80 -193h145l242 447h-268zM172 803q0 63 44.5 107t107.5 44t107 -44t44 -107t-44 -107.5t-107 -44.5t-107.5 44.5t-44.5 107.5z" />
<glyph unicode="=" horiz-adv-x="948" d="M33 250v176h882v-176h-882zM33 578v176h882v-176h-882z" />
<glyph unicode="?" horiz-adv-x="864" d="M84 1151v195q186 53 336 53q201 0 285 -94q27 -31 43.5 -63t22.5 -71t7.5 -63t1.5 -72q0 -42 -1.5 -67.5t-8 -65.5t-23.5 -74.5t-45 -64.5q-61 -64 -161 -82v-184h-213v313h45q84 0 123 25q51 34 51 186q0 41 -1.5 66.5t-13 62t-34.5 53.5q-41 25 -90 25q-74 0 -150 -12 q-6 -60 -20 -107zM262 147q0 71 50 121.5t122 50.5t122 -50.5t50 -121.5q0 -72 -50 -122t-122 -50t-122 50t-50 122z" />
<glyph unicode="@" horiz-adv-x="1495" d="M215 -25v668q0 313 88 463q55 91 158 136.5t291 45.5q187 0 289 -45.5t157 -136.5q88 -150 88 -463v-469q74 -8 113 -20l-41 -154h-271v37q-140 -62 -223 -62q-71 0 -124 22.5t-85 58.5t-51 90.5t-26 110t-7 124.5q0 78 3.5 134t13.5 116t30.5 100t52 73.5t80 49.5 t113.5 16q97 0 187 -49q-13 95 -41 158q-31 68 -91 102.5t-169 34.5q-108 0 -168 -34.5t-93 -102.5q-51 -109 -51 -344v-660h-223zM805 403q0 -235 115 -235q47 0 143 39v430q-75 47 -123 47q-35 0 -59.5 -13.5t-39.5 -35.5t-23 -59.5t-10.5 -76.5t-2.5 -96z" />
<glyph unicode="A" horiz-adv-x="1376" d="M18 166q50 15 115 22l377 1184h348l387 -1184q65 -8 113 -22l-43 -166h-393l-45 168q35 11 102 20l-66 203h-481l-57 -203q67 -9 102 -20l-45 -168h-369zM483 578h371l-199 624z" />
<glyph unicode="B" horiz-adv-x="1241" d="M109 166q50 15 114 22v998q-60 3 -114 22l45 164h565q90 0 161.5 -18t128 -56.5t87 -104t30.5 -155.5q0 -144 -42 -218t-146 -103q120 -21 180 -95t60 -223q0 -221 -99 -310t-309 -89h-616zM473 186h272q78 0 123 58t45 151q0 96 -50 152.5t-130 56.5h-260v-418zM473 791 h242q72 0 110.5 55t38.5 143q0 92 -37 145.5t-112 53.5h-242v-397z" />
<glyph unicode="C" horiz-adv-x="1120" d="M82 686q0 75 1 120t7.5 109t18.5 110t34.5 99.5t55.5 100.5q127 174 419 174q175 0 429 -74v-225l-209 -58q-23 68 -29 146q-105 24 -207 24q-42 0 -87 -20t-77 -57q-32 -40 -52 -94t-28 -121.5t-10 -114t-2 -119.5t2 -119.5t10 -114t28 -121t52 -93.5q67 -76 170 -76 q165 0 414 76l47 -179q-274 -84 -451 -84q-291 0 -419 175q-41 58 -66 121t-35.5 137.5t-13 130t-2.5 147.5z" />
<glyph unicode="D" horiz-adv-x="1366" d="M109 166q50 15 114 22v998q-60 3 -114 22l45 164h626q277 0 394 -166q38 -57 61.5 -117.5t33.5 -132t12.5 -126t2.5 -144.5q0 -88 -2.5 -142.5t-12.5 -126t-33.5 -132.5t-61.5 -117q-117 -168 -394 -168h-626zM473 186h215q55 0 113.5 19.5t99.5 54.5q42 38 68 88.5 t36.5 114t13.5 109t3 114.5q0 68 -3 113.5t-13.5 108.5t-36.5 114t-68 90q-42 34 -100.5 54t-112.5 20h-215v-1000z" />
<glyph unicode="E" horiz-adv-x="1155" d="M109 166q50 15 114 22v998q-60 3 -114 22l45 164h921v-272l-209 -58q-21 70 -28 144h-365v-395h301q7 57 23 112l166 -43v-325l-166 -46q-16 55 -23 115h-301v-418h381q7 73 29 144l209 -56v-274h-938z" />
<glyph unicode="F" horiz-adv-x="1107" d="M109 166q50 15 114 22v998q-60 3 -114 22l45 164h890v-272l-208 -58q-23 75 -29 144h-334v-395h270q7 57 23 112l166 -43v-325l-166 -46q-16 55 -23 115h-270v-416q69 -7 125 -22l-45 -166h-399z" />
<glyph unicode="G" horiz-adv-x="1187" d="M82 686q0 75 1 120t7.5 109t18.5 110t34.5 99.5t55.5 100.5q127 174 419 174q191 0 465 -86v-223l-209 -56q-22 75 -28 144q-112 34 -242 34q-43 0 -88 -20t-78 -57q-32 -40 -52 -94t-28 -121.5t-10 -114t-2 -119.5t2 -119.5t10 -114t28 -121t52 -93.5q33 -37 78 -57.5 t88 -20.5q126 0 260 41v295q-72 8 -123 22l43 166h330v-616q-281 -93 -496 -93q-291 0 -419 175q-41 58 -66 121t-35.5 137.5t-13 130t-2.5 147.5z" />
<glyph unicode="H" horiz-adv-x="1458" d="M109 166q50 15 114 22v998q-60 3 -114 22l45 164h389l45 -164q-54 -19 -115 -22v-395h512v395q-59 4 -113 22l46 164h387l45 -164q-54 -19 -115 -22v-998q65 -7 115 -22l-45 -166h-387l-46 166q48 14 113 22v416h-512v-416q65 -7 115 -22l-45 -166h-389z" />
<glyph unicode="I" horiz-adv-x="688" d="M104 166q50 15 115 22v998q-61 3 -115 22l46 164h389l45 -164q-54 -19 -115 -22v-998q65 -7 115 -22l-45 -166h-389z" />
<glyph unicode="J" horiz-adv-x="841" d="M43 -4l49 180q64 -15 124 -15q2 0 4 1q63 0 102 26q36 24 46.5 61.5t10.5 96.5v840q-81 8 -125 22l45 164h399l43 -164q-54 -18 -112 -22v-858q0 -211 -160 -301q-60 -33 -134 -45q-52 -8 -99 -8q-20 0 -40 2q-64 5 -153 20z" />
<glyph unicode="K" horiz-adv-x="1382" d="M109 166q50 15 114 22v998q-60 3 -114 22l45 164h389l45 -164q-54 -19 -115 -22v-395h133l301 395q-45 3 -100 18l45 168h387l43 -164q-54 -18 -113 -22l-352 -463l410 -535q63 -8 112 -22l-43 -166h-235l-461 604h-127v-416q65 -7 115 -22l-45 -166h-389z" />
<glyph unicode="L" horiz-adv-x="1071" d="M109 166q50 15 114 22v998q-60 3 -114 22l45 164h389l45 -164q-54 -19 -115 -22v-1000h318q7 78 28 144l209 -56v-274h-874z" />
<glyph unicode="M" horiz-adv-x="1728" d="M92 166q50 15 115 22v998q-61 3 -115 22l45 164h410l319 -842l318 842h409l43 -164q-54 -18 -112 -22v-998q63 -8 112 -22l-43 -166h-354l-45 166q50 15 115 22v930l-320 -844h-248l-319 844v-930q65 -7 115 -22l-45 -166h-355z" />
<glyph unicode="N" horiz-adv-x="1550" d="M92 166q50 15 115 22v998q-61 3 -115 22l45 164h400l600 -1114v928q-59 4 -113 22l43 164h354l45 -164q-54 -19 -114 -22v-1186h-330l-600 1114v-926q65 -7 115 -22l-45 -166h-355z" />
<glyph unicode="O" horiz-adv-x="1308" d="M82 686q0 350 94 510q60 101 168.5 152t308.5 51q201 0 310.5 -51t169.5 -152q94 -160 94 -510q0 -346 -94 -510q-59 -100 -168.5 -150.5t-311.5 -50.5q-200 0 -309 50.5t-168 150.5q-94 160 -94 510zM346 686q0 -258 51 -377q31 -74 89.5 -110.5t166.5 -36.5 q109 0 168 36.5t90 110.5q52 122 52 377t-52 377q-31 74 -90.5 111.5t-167.5 37.5t-166.5 -37.5t-89.5 -111.5q-51 -119 -51 -377z" />
<glyph unicode="P" horiz-adv-x="1193" d="M109 166q50 15 114 22v998q-60 3 -114 22l45 164h581q201 0 308.5 -84t107.5 -272q0 -63 -1.5 -108t-6.5 -95t-14 -84.5t-24 -70.5t-37 -59.5t-53 -45.5t-71.5 -34.5t-92.5 -19.5t-116 -7h-262v-304q69 -7 125 -22l-45 -166h-397zM473 676h205q54 0 93 16t61 40.5t35 64 t16.5 76.5t3.5 88q0 227 -209 227h-205v-512z" />
<glyph unicode="Q" horiz-adv-x="1308" d="M82 686q0 350 94 510q60 101 168.5 152t308.5 51q201 0 310.5 -51t169.5 -152q94 -160 94 -510q0 -346 -94 -510q-62 -106 -179 -153l228 -146l-160 -199l-369 297q-200 0 -309 50.5t-168 150.5q-94 160 -94 510zM346 686q0 -258 51 -377q31 -74 89.5 -110.5t166.5 -36.5 q109 0 168 36.5t90 110.5q52 122 52 377t-52 377q-31 74 -90.5 111.5t-167.5 37.5t-166.5 -37.5t-89.5 -111.5q-51 -119 -51 -377z" />
<glyph unicode="R" horiz-adv-x="1236" d="M109 166q50 15 114 22v998q-60 3 -114 22l45 164h557q200 0 307.5 -79.5t107.5 -256.5q0 -54 -0.5 -86.5t-3.5 -77t-9 -72t-16 -61t-25.5 -56t-37 -46t-51.5 -41t-68 -31.5l156 -377q65 -7 115 -22l-45 -166h-264l-218 545h-186v-357q65 -7 115 -22l-45 -166h-389z M473 727h180q55 0 94 14.5t61.5 37t35.5 58t16.5 68.5t3.5 78q0 98 -56 152.5t-155 54.5h-180v-463z" />
<glyph unicode="S" horiz-adv-x="1140" d="M63 45v227l209 58q21 -69 29 -146q139 -22 213 -22q152 0 225.5 63t73.5 168q0 56 -30.5 95t-79.5 59t-112.5 39.5t-129.5 35t-129.5 47t-112.5 73.5t-79.5 117.5t-30.5 176.5q0 110 62 194t165.5 126.5t230.5 42.5q210 0 457 -74v-219l-209 -55q-22 77 -27 143 q-95 18 -194 18q-92 0 -156.5 -46.5t-64.5 -127.5q0 -57 24 -98t65 -64.5t93.5 -41t111 -32t117 -32t111 -46.5t93.5 -70t65 -108.5t24 -156.5q0 -203 -138.5 -308.5t-369.5 -105.5q-273 0 -506 70z" />
<glyph unicode="T" horiz-adv-x="1198" d="M27 1098v274h1144v-274l-208 -58q-22 74 -29 146h-211v-998q65 -7 115 -22l-45 -166h-390l-43 166q48 14 113 22v998h-209q-7 -77 -28 -146z" />
<glyph unicode="U" horiz-adv-x="1441" d="M100 1208l45 164h390l45 -164q-54 -19 -115 -22v-780q0 -127 69.5 -185.5t186.5 -58.5t186.5 58.5t69.5 185.5v780q-59 4 -113 22l45 164h387l45 -164q-54 -19 -114 -22v-881q0 -145 -129 -237.5t-377 -92.5t-377 92.5t-129 237.5v881q-61 3 -115 22z" />
<glyph unicode="V" horiz-adv-x="1402" d="M35 1208l45 164h391l45 -168q-56 -15 -102 -18l313 -965l279 965q-48 3 -103 18l45 168h377l43 -164q-54 -18 -113 -22l-385 -1186h-335l-385 1186q-61 3 -115 22z" />
<glyph unicode="W" horiz-adv-x="1998" d="M35 1208l45 164h379l47 -168q-55 -15 -103 -18l238 -936l211 1122h328l215 -1122l233 936q-48 3 -100 18l45 168h346l45 -164q-54 -19 -115 -22l-336 -1186h-292l-213 1124l-222 -1124h-301l-335 1186q-61 3 -115 22z" />
<glyph unicode="X" horiz-adv-x="1427" d="M43 166q50 15 115 22l397 521l-365 477q-58 4 -112 22l43 164h430l45 -168q-56 -15 -102 -18l249 -328l232 328q-48 3 -103 18l46 168h387l45 -164q-54 -19 -115 -22l-363 -477l398 -521q64 -7 114 -22l-45 -166h-430l-45 168q34 11 103 20l-285 373l-264 -373 q67 -9 102 -20l-47 -168h-385z" />
<glyph unicode="Y" horiz-adv-x="1492" d="M35 1208l45 164h428l45 -168q-56 -15 -100 -18l327 -430l301 430q-45 3 -100 18l45 168h387l45 -164q-57 -18 -115 -22l-473 -621v-377q65 -7 115 -22l-45 -166h-399l-43 166q55 15 123 22v377l-471 621q-61 3 -115 22z" />
<glyph unicode="Z" horiz-adv-x="1095" d="M59 0v219l666 936h-391q-8 -83 -29 -143l-207 55v305h922v-217l-653 -936h432q7 74 28 143l209 -57v-305h-977z" />
<glyph unicode="[" horiz-adv-x="741" d="M207 -461v1856h442v-185h-219v-1486h219v-185h-442z" />
<glyph unicode="]" horiz-adv-x="741" d="M92 -276h219v1486h-219v185h443v-1856h-443v185z" />
<glyph unicode="_" horiz-adv-x="972" d="M0 -145h973v-84h-973v84z" />
<glyph unicode="a" horiz-adv-x="1009" d="M63 262q0 186 119 279q45 34 119 47q52 9 106 10q23 0 47 -2q78 -6 164 -25v33q0 30 -0.5 45t-2.5 40t-7 38t-14.5 30t-23 25.5t-35 14.5t-48.5 6q-114 0 -294 -60l-46 168q200 68 353 68q354 0 354 -334v-471q70 -9 104 -20l-40 -154h-289v55q-4 -1 -31.5 -12t-32 -13 t-28.5 -11t-31 -11t-28.5 -9t-31.5 -8.5t-29 -6t-33 -5.5t-31.5 -2.5t-35.5 -1.5q-112 0 -183 73t-71 214zM307 293q0 -51 29.5 -86t79.5 -35q28 0 60 8t78 24t64 21v172q-94 23 -158 23q-61 0 -93 -21q-28 -18 -44 -47.5t-16 -58.5z" />
<glyph unicode="b" horiz-adv-x="1048" d="M59 1241l41 154h299v-465q131 49 230 49q86 0 151 -25t103.5 -65.5t62.5 -101.5t32.5 -123t8.5 -140q0 -277 -85 -414t-273 -137q-225 0 -465 64v1184q-51 3 -105 20zM399 162q89 -19 164 -19q36 0 64.5 11.5t46.5 27t31 46.5t19.5 56t10 69.5t4 73t0.5 79.5 q0 61 -6 108.5t-21.5 93.5t-47.5 71.5t-80 25.5q-75 0 -185 -45v-598z" />
<glyph unicode="c" horiz-adv-x="874" d="M61 477q0 154 27.5 254.5t97.5 161.5q99 86 269 86q155 0 350 -66v-233h-154q-14 43 -20 106q-96 21 -160 21q-56 0 -100 -41q-28 -33 -43 -90.5t-17 -98t-2 -104.5q0 -65 2 -104.5t16 -94t40 -86.5q41 -38 100 -38q124 0 315 67l45 -168q-212 -74 -372 -74 q-143 0 -232 56q-93 58 -127.5 164t-34.5 282z" />
<glyph unicode="d" horiz-adv-x="1069" d="M61 430q0 74 3 129t11.5 115.5t24.5 103t42.5 83t64 65t90.5 39t121 14.5q110 0 231 -59v301q-52 3 -106 20l41 154h301v-1221q70 -9 104 -20l-41 -154h-276v37q-167 -62 -254 -62q-86 0 -150.5 25t-103.5 65.5t-62.5 101.5t-32 123t-8.5 140zM309 449q0 -61 5.5 -108.5 t21 -93.5t47.5 -71.5t80 -25.5q73 0 186 45v557q-91 53 -160 53q-47 0 -80 -17t-52.5 -44.5t-30 -75.5t-14 -97t-3.5 -122z" />
<glyph unicode="e" horiz-adv-x="917" d="M61 477q0 257 95 379.5t305 122.5t304.5 -122.5t94.5 -379.5v-80h-553q0 -34 1.5 -59t11 -63.5t26 -63t49 -43t78.5 -18.5q109 0 332 77l45 -168q-236 -84 -389 -84q-172 0 -262 72q-82 63 -110 158t-28 272zM307 571h311q0 40 -7 77t-23.5 74.5t-49 60t-77.5 22.5 t-77 -22.5t-48 -60t-22.5 -74.5t-6.5 -77z" />
<glyph unicode="f" horiz-adv-x="731" d="M90 780v174h119v164q0 138 84.5 219.5t230.5 81.5q85 0 205 -45l-45 -168q-77 27 -123 27q-117 0 -117 -148v-131h232l-47 -174h-185v-606q73 -8 113 -20l-41 -154h-371l-41 154q36 11 105 20v606h-119z" />
<glyph unicode="g" horiz-adv-x="1069" d="M61 430q0 74 3 129t11.5 115.5t24.5 103t42.5 83t64 65t90.5 39t121 14.5q110 0 254 -70v45h276l41 -153q-39 -13 -104 -21v-932q0 -333 -353 -333q-169 0 -407 94l45 168q111 -42 191.5 -64t156.5 -22q27 0 48 6t35 14t23.5 25t14.5 30t7 38.5t2.5 40.5t0.5 46v136 q-154 -52 -231 -52q-86 0 -150.5 25t-103.5 65.5t-62.5 101.5t-32 123t-8.5 140zM309 449q0 -61 5.5 -108.5t21 -93.5t47.5 -71.5t80 -25.5q73 0 186 45v557q-91 53 -160 53q-47 0 -80 -17t-52.5 -44.5t-30 -75.5t-14 -97t-3.5 -122z" />
<glyph unicode="h" horiz-adv-x="1148" d="M90 154q36 11 105 20v1047q-51 3 -105 20l41 154h299v-512q192 96 293 96q130 0 199 -67t69 -193v-545q72 -9 107 -20l-41 -154h-301v657q0 44 -23 80.5t-80 36.5q-52 0 -99 -15t-124 -50v-535q69 -9 105 -20l-41 -154h-363z" />
<glyph unicode="i" horiz-adv-x="589" d="M80 154l41 -154h362l41 154q-37 11 -104 20v780h-299l-41 -153q42 -13 104 -21v-606q-67 -9 -104 -20zM150 1231q0 63 44.5 107t106.5 44q63 0 108.5 -44t45.5 -107t-45.5 -107.5t-108.5 -44.5q-62 0 -106.5 44.5t-44.5 107.5z" />
<glyph unicode="j" horiz-adv-x="618" d="M80 -295q23 -4 42 -4q120 0 120 147v932q-67 9 -105 21l41 153h299v-1138q0 -150 -103 -236q-78 -64 -204 -64q-42 0 -90 7v182zM207 1231q0 63 44 107t107 44t107.5 -44t44.5 -107t-44.5 -107.5t-107.5 -44.5t-107 44.5t-44 107.5z" />
<glyph unicode="k" horiz-adv-x="1093" d="M90 154q36 11 105 20v1047q-51 3 -105 20l41 154h299v-824h137l129 209q-31 2 -92 17l41 157h346l41 -153q-44 -13 -106 -21l-189 -276l226 -330q68 -8 106 -20l-41 -154h-211l-270 397h-117v-223q69 -9 105 -20l-41 -154h-363z" />
<glyph unicode="l" horiz-adv-x="614" d="M90 154q36 11 105 20v1047q-51 3 -105 20l41 154h299v-1221q69 -9 105 -20l-41 -154h-363z" />
<glyph unicode="m" horiz-adv-x="1617" d="M80 154q37 11 104 20v606q-62 8 -104 21l41 153h287v-77q90 49 156.5 75.5t125.5 26.5q163 0 221 -113q104 57 172 85t127 28q123 0 186.5 -67t63.5 -193v-545q72 -9 107 -20l-41 -154h-301v657q0 44 -20 80.5t-70 36.5q-47 0 -90 -15.5t-105 -49.5v-535q70 -9 104 -20 l-40 -154h-299v657q0 43 -21 80t-70 37q-47 0 -89 -15.5t-105 -49.5v-535q67 -9 104 -20l-41 -154h-362z" />
<glyph unicode="n" horiz-adv-x="1138" d="M80 154q37 11 104 20v606q-62 8 -104 21l41 153h287v-77q97 49 169.5 75.5t135.5 26.5q130 0 199 -67t69 -193v-545q71 -9 106 -20l-40 -154h-302v657q0 44 -22.5 80.5t-79.5 36.5q-52 0 -99 -15t-124 -50v-535q67 -9 104 -20l-41 -154h-362z" />
<glyph unicode="o" horiz-adv-x="974" d="M61 477q0 244 70 361q44 71 125.5 106t230.5 35t231 -35.5t126 -105.5q69 -115 69 -361q0 -245 -69 -360q-44 -71 -126 -106.5t-231 -35.5t-230.5 35.5t-125.5 106.5q-70 117 -70 360zM309 477q0 -161 29 -235q19 -46 52.5 -69t96.5 -23t97.5 23t52.5 69q29 74 29 235 q0 162 -29 236q-18 46 -52.5 69t-97.5 23t-96.5 -23t-52.5 -69q-29 -74 -29 -236z" />
<glyph unicode="p" horiz-adv-x="1069" d="M80 -307q55 17 104 20v1067q-62 8 -104 21l41 153h274v-36q164 61 254 61q86 0 151 -25t104 -65.5t63 -101t32.5 -123t8.5 -140.5q0 -74 -3 -129t-12 -115.5t-24.5 -103t-42.5 -83t-64 -65t-91 -39t-122 -14.5q-109 0 -229 60v-322q49 -3 104 -20l-41 -154h-362zM420 203 q91 -53 160 -53q46 0 79 17t52.5 44.5t30.5 75t14.5 97.5t3.5 122q0 299 -156 299q-74 0 -184 -45v-557z" />
<glyph unicode="q" horiz-adv-x="1054" d="M61 430q0 74 3 129t11.5 115.5t24.5 103t42.5 83t64 65t90.5 39t121 14.5q110 0 254 -70v45h213v-1241q53 -3 104 -20l-41 -154h-364l-41 154q54 17 106 20v314q-154 -52 -231 -52q-86 0 -150.5 25t-103.5 65.5t-62.5 101.5t-32 123t-8.5 140zM309 449q0 -61 5.5 -108.5 t21 -93.5t47.5 -71.5t80 -25.5q73 0 186 45v557q-91 53 -160 53q-47 0 -80 -17t-52.5 -44.5t-30 -75.5t-14 -97t-3.5 -122z" />
<glyph unicode="r" horiz-adv-x="708" d="M80 154q37 11 104 20v606q-62 8 -104 21l41 153h287v-69q192 94 280 94v-211q-154 0 -268 -51v-543q72 -8 112 -20l-40 -154h-371z" />
<glyph unicode="s" horiz-adv-x="849" d="M61 57v226h154q15 -47 21 -107q102 -26 172 -26q133 0 133 116q0 42 -25.5 70.5t-66 45.5t-89 31.5t-97.5 34.5t-89.5 48.5t-66 80t-25.5 121.5t30 125.5t79 88.5t106 50t117 17q131 0 344 -72v-223h-154q-14 42 -20 107q-72 16 -129 16q-56 0 -90.5 -26.5t-34.5 -71.5 q0 -40 25.5 -68t65.5 -44t89 -30.5t98 -35t89 -49.5t65.5 -82t25.5 -126q0 -81 -29 -141t-77.5 -93.5t-104 -49t-116.5 -15.5q-150 0 -400 82z" />
<glyph unicode="t" horiz-adv-x="704" d="M66 780v174h118v232h236v-232h256l-47 -174h-209v-471q0 -147 117 -147q50 0 100 18l45 -168q-98 -37 -182 -37q-146 0 -231 81t-85 218v506h-118z" />
<glyph unicode="u" horiz-adv-x="1134" d="M61 801l41 153h299v-657q0 -26 7 -50t31 -45.5t63 -21.5q52 0 100 15.5t125 50.5v534q-65 8 -104 21l41 153h299v-780q71 -9 106 -20l-41 -154h-289v78q-64 -32 -106 -50.5t-98.5 -35.5t-100.5 -17q-131 0 -199.5 67t-68.5 194v544q-63 8 -105 21z" />
<glyph unicode="v" horiz-adv-x="1095" d="M16 801l41 153h244l266 -729l183 555q-32 2 -93 17l41 157h340l41 -153q-39 -13 -104 -21l-285 -780h-278l-291 780q-63 8 -105 21z" />
<glyph unicode="w" horiz-adv-x="1587" d="M16 801l41 153h246l215 -739l129 739h307l148 -739l149 565q-31 2 -92 17l41 157h330l41 -153q-40 -12 -107 -21l-243 -780h-279l-145 739l-144 -739h-286l-246 780q-63 8 -105 21z" />
<glyph unicode="x" horiz-adv-x="997" d="M25 154q37 11 104 20l221 315l-203 291q-62 8 -106 21l41 153h205l237 -340l109 166q-31 2 -92 17l41 157h333l41 -153q-42 -13 -104 -21l-205 -291l221 -315q72 -9 105 -20l-41 -154h-203l-256 367l-125 -193q36 -3 92 -16l-41 -158h-333z" />
<glyph unicode="y" horiz-adv-x="1095" d="M16 801l41 153h250l260 -712l176 538q-31 2 -92 17l41 157h346l41 -153q-39 -13 -104 -21l-391 -1069q-38 -94 -121 -145t-193 -51q-102 0 -223 53l45 168q41 -16 57 -22.5t48 -13.5t61 -7q38 0 69.5 24t49.5 62l82 221h-47l-291 780q-63 8 -105 21z" />
<glyph unicode="z" horiz-adv-x="888" d="M55 0v160l490 602h-293q-6 -55 -23 -113h-149v305h735v-188l-457 -573h306q7 69 20 112h150v-305h-779z" />
<glyph unicode="|" horiz-adv-x="589" d="M207 -485v2027h176v-2027h-176z" />
<glyph unicode="&#xa1;" horiz-adv-x="684" d="M170 807q0 72 50.5 122t121.5 50q72 0 122 -50t50 -122q0 -71 -50 -121.5t-122 -50.5q-70 0 -121 50.5t-51 121.5zM217 -440h250l-31 897h-188z" />
<glyph unicode="&#xad;" d="M86 401v201h557v-201h-557z" />
<glyph unicode="&#xb7;" horiz-adv-x="987" d="M342 510q0 63 44.5 107.5t107.5 44.5t107 -44.5t44 -107.5t-44 -107.5t-107 -44.5t-107.5 44.5t-44.5 107.5z" />
<glyph unicode="&#xbf;" horiz-adv-x="864" d="M84 -74q0 -62 2.5 -95t20 -82.5t53.5 -88.5q82 -94 284 -94q146 0 336 51v195l-151 41q-16 -44 -23 -105q-76 -12 -149 -12q-54 0 -90 22q-48 38 -48 183q0 154 50 188q41 23 123 23h47l-2 313h-213v-182q-100 -21 -160 -84q-37 -38 -56 -92t-21.5 -88.5t-2.5 -92.5z M258 807q0 72 50.5 122t121.5 50q72 0 123 -50t51 -122q0 -71 -51 -121.5t-123 -50.5q-70 0 -121 50.5t-51 121.5z" />
<glyph unicode="&#xc1;" horiz-adv-x="1409" d="M35 166q50 15 115 22l376 1184h348l388 -1184q63 -8 112 -22l-43 -166h-393l-45 168q35 11 102 20l-65 203h-481l-58 -203q69 -9 103 -20l-45 -168h-369zM500 578h368l-196 612zM545 1548l168 289h264l-264 -289h-168z" />
<glyph unicode="&#xc4;" horiz-adv-x="1409" d="M35 166q50 15 115 22l376 1184h348l388 -1184q63 -8 112 -22l-43 -166h-393l-45 168q35 11 102 20l-65 203h-481l-58 -203q69 -9 103 -20l-45 -168h-369zM387 1675q0 53 37.5 90t89.5 37q54 0 90.5 -37t36.5 -90t-36.5 -90t-90.5 -37q-52 0 -89.5 37t-37.5 90zM500 578 h368l-196 612zM768 1675q0 53 37 90t90 37t90 -37t37 -90t-37 -90t-90 -37t-90 37t-37 90z" />
<glyph unicode="&#xc9;" horiz-adv-x="1187" d="M125 166q50 15 115 22v998q-61 3 -115 22l45 164h922v-272l-209 -58q-23 75 -29 144h-365v-395h302q8 63 22 112l166 -43v-325l-166 -46q-15 50 -22 115h-302v-418h381q7 73 29 144l209 -56v-274h-938zM473 1548l168 289h264l-264 -289h-168z" />
<glyph unicode="&#xcb;" horiz-adv-x="1187" d="M125 166q50 15 115 22v998q-61 3 -115 22l45 164h922v-272l-209 -58q-23 75 -29 144h-365v-395h302q8 63 22 112l166 -43v-325l-166 -46q-15 50 -22 115h-302v-418h381q7 73 29 144l209 -56v-274h-938zM299 1675q0 53 36.5 90t90.5 37q52 0 89.5 -37t37.5 -90t-37.5 -90 t-89.5 -37q-54 0 -90.5 37t-36.5 90zM678 1675q0 53 37 90t90 37t90 -37t37 -90t-37 -90t-90 -37t-90 37t-37 90z" />
<glyph unicode="&#xcd;" horiz-adv-x="720" d="M121 166q50 15 115 22v998q-61 3 -115 22l45 164h389l45 -164q-54 -19 -115 -22v-998q65 -7 115 -22l-45 -166h-389zM201 1548l168 289h262l-262 -289h-168z" />
<glyph unicode="&#xcf;" horiz-adv-x="718" d="M43 1675q0 53 37.5 90t89.5 37t89.5 -37t37.5 -90t-37.5 -90t-89.5 -37t-89.5 37t-37.5 90zM121 166q50 15 115 22v998q-61 3 -115 22l45 164h389l43 -164q-54 -18 -113 -22v-998q65 -8 113 -22l-43 -166h-389zM422 1675q0 53 37 90t90 37q54 0 90.5 -37t36.5 -90 t-36.5 -90t-90.5 -37q-53 0 -90 37t-37 90z" />
<glyph unicode="&#xd1;" horiz-adv-x="1583" d="M109 166l45 -166h354l45 166q-50 15 -115 22v926l600 -1114h330v1186q61 3 115 22l-45 164h-355l-43 -164q54 -18 113 -22v-928l-600 1114h-399l-45 -164q54 -19 114 -22v-998q-64 -7 -114 -22zM455 1604q51 206 186 206q56 0 106 -25t99 -50t102 -25t82 84l105 -43 q-21 -90 -68.5 -152.5t-116.5 -62.5q-49 0 -94 16t-74 35t-67 35t-74 16q-56 0 -84 -75z" />
<glyph unicode="&#xd3;" horiz-adv-x="1341" d="M98 686q0 349 95 510q60 101 168.5 152t308.5 51q137 0 233.5 -25.5t151.5 -68.5t94 -109q94 -160 94 -510q0 -346 -94 -510q-60 -101 -168.5 -151t-310.5 -50q-200 0 -309 50.5t-168 150.5q-95 161 -95 510zM362 686q0 -255 52 -377q31 -74 89.5 -110.5t166.5 -36.5 q109 0 168 36.5t90 110.5q51 119 51 377t-51 377q-31 74 -90.5 111.5t-167.5 37.5t-166.5 -37.5t-89.5 -111.5q-52 -122 -52 -377zM528 1548l168 289h265l-265 -289h-168z" />
<glyph unicode="&#xd6;" horiz-adv-x="1341" d="M98 686q0 349 95 510q60 101 168.5 152t308.5 51q137 0 233.5 -25.5t151.5 -68.5t94 -109q94 -160 94 -510q0 -346 -94 -510q-60 -101 -168.5 -151t-310.5 -50q-200 0 -309 50.5t-168 150.5q-95 161 -95 510zM354 1675q0 53 36.5 90t90.5 37q53 0 90 -37t37 -90t-37 -90 t-90 -37q-54 0 -90.5 37t-36.5 90zM362 686q0 -255 52 -377q31 -74 89.5 -110.5t166.5 -36.5q109 0 168 36.5t90 110.5q51 119 51 377t-51 377q-31 74 -90.5 111.5t-167.5 37.5t-166.5 -37.5t-89.5 -111.5q-52 -122 -52 -377zM733 1675q0 53 37.5 90t89.5 37t89.5 -37 t37.5 -90t-37.5 -90t-89.5 -37t-89.5 37t-37.5 90z" />
<glyph unicode="&#xda;" horiz-adv-x="1474" d="M117 1208l45 164h389l45 -164q-54 -19 -115 -22v-780q0 -127 69.5 -185.5t186.5 -58.5t186.5 58.5t69.5 185.5v780q-58 4 -112 22l45 164h387l45 -164q-54 -19 -115 -22v-881q0 -145 -129 -237.5t-377 -92.5t-377 92.5t-129 237.5v881q-60 3 -114 22zM612 1548l168 289 h264l-264 -289h-168z" />
<glyph unicode="&#xdc;" horiz-adv-x="1474" d="M117 1208l45 164h389l45 -164q-54 -19 -115 -22v-780q0 -127 69.5 -185.5t186.5 -58.5t186.5 58.5t69.5 185.5v780q-58 4 -112 22l45 164h387l45 -164q-54 -19 -115 -22v-881q0 -145 -129 -237.5t-377 -92.5t-377 92.5t-129 237.5v881q-60 3 -114 22zM420 1675 q0 53 37 90t90 37t90 -37t37 -90t-37 -90t-90 -37t-90 37t-37 90zM801 1675q0 53 36.5 90t90.5 37q52 0 89.5 -37t37.5 -90t-37.5 -90t-89.5 -37q-54 0 -90.5 37t-36.5 90z" />
<glyph unicode="&#xdd;" horiz-adv-x="1525" d="M51 1208l45 164h428l45 -168q-56 -15 -100 -18l328 -430l301 430q-46 3 -101 18l45 168h388l45 -164q-57 -18 -115 -22l-473 -621v-377q64 -7 114 -22l-45 -166h-399l-43 166q55 15 123 22v377l-471 621q-61 3 -115 22zM604 1548l166 289h264l-264 -289h-166z" />
<glyph unicode="&#xdf;" horiz-adv-x="1103" d="M57 154q36 11 105 20v1137q128 43 264 75.5t219 32.5q154 0 246 -83.5t92 -219.5q0 -56 -4.5 -97.5t-18 -88.5t-44 -82.5t-76.5 -59.5q103 -28 142.5 -122.5t39.5 -274.5q0 -416 -377 -416q-54 0 -119 7v184h45q64 0 109.5 22t68.5 59t32.5 76t9.5 83q0 135 -46.5 202.5 t-166.5 67.5h-52v196h72q81 0 124.5 55.5t43.5 135.5q0 36 -5 61t-19.5 49t-44.5 36t-76 12q-99 0 -224 -39v-1182h-299z" />
<glyph unicode="&#xe1;" horiz-adv-x="1042" d="M80 262q0 186 119 279q45 34 119 47t152.5 7.5t164.5 -24.5v33q0 30 -0.5 45t-2.5 40t-7 38t-14.5 30t-23 25.5t-35 14.5t-48.5 6q-115 0 -295 -60l-45 168q200 68 352 68q354 0 354 -334v-471q72 -9 105 -20l-41 -154h-289v55q-7 -3 -31.5 -12.5t-31.5 -12.5t-29 -11 t-30.5 -11t-28.5 -9t-31 -8.5t-29.5 -6.5t-32.5 -5t-31.5 -2.5t-35.5 -1.5q-112 0 -183 73t-71 214zM324 293q0 -51 29.5 -86t78.5 -35q28 0 60.5 8t79 24t63.5 21v172q-185 44 -252 2q-28 -18 -43.5 -47.5t-15.5 -58.5zM367 1130l168 289h264l-264 -289h-168z" />
<glyph unicode="&#xe4;" horiz-adv-x="1042" d="M80 262q0 186 119 279q45 34 119 47t152.5 7.5t164.5 -24.5v33q0 30 -0.5 45t-2.5 40t-7 38t-14.5 30t-23 25.5t-35 14.5t-48.5 6q-115 0 -295 -60l-45 168q200 68 352 68q354 0 354 -334v-471q72 -9 105 -20l-41 -154h-289v55q-7 -3 -31.5 -12.5t-31.5 -12.5t-29 -11 t-30.5 -11t-28.5 -9t-31 -8.5t-29.5 -6.5t-32.5 -5t-31.5 -2.5t-35.5 -1.5q-112 0 -183 73t-71 214zM193 1257q0 53 37 90t89 37q53 0 90 -37t37 -90t-37 -90t-90 -37q-52 0 -89 37t-37 90zM324 293q0 -51 29.5 -86t78.5 -35q28 0 60.5 8t79 24t63.5 21v172q-185 44 -252 2 q-28 -18 -43.5 -47.5t-15.5 -58.5zM571 1257q0 53 37.5 90t89.5 37q54 0 90.5 -37t36.5 -90t-36.5 -90t-90.5 -37q-52 0 -89.5 37t-37.5 90z" />
<glyph unicode="&#xe9;" horiz-adv-x="950" d="M78 477q0 257 94.5 379.5t304.5 122.5t305 -122.5t95 -379.5v-80h-553q0 -23 0.5 -40.5t4 -45t10 -47.5t18.5 -43t29 -37.5t43.5 -24t59.5 -9.5q109 0 332 77l45 -168q-236 -84 -389 -84q-172 0 -262 72q-82 63 -109.5 157.5t-27.5 272.5zM328 571h303q0 40 -6.5 77 t-22.5 74.5t-48 60t-77 22.5t-76.5 -22.5t-46 -60.5t-20.5 -74t-6 -77zM336 1130l168 289h262l-262 -289h-168z" />
<glyph unicode="&#xeb;" horiz-adv-x="950" d="M78 477q0 257 94.5 379.5t304.5 122.5t305 -122.5t95 -379.5v-80h-553q0 -23 0.5 -40.5t4 -45t10 -47.5t18.5 -43t29 -37.5t43.5 -24t59.5 -9.5q109 0 332 77l45 -168q-236 -84 -389 -84q-172 0 -262 72q-82 63 -109.5 157.5t-27.5 272.5zM160 1257q0 53 37 90t90 37 q54 0 90.5 -37t36.5 -90t-36.5 -90t-90.5 -37q-53 0 -90 37t-37 90zM328 571h303q0 40 -6.5 77t-22.5 74.5t-48 60t-77 22.5t-76.5 -22.5t-46 -60.5t-20.5 -74t-6 -77zM541 1257q0 53 37.5 90t89.5 37t89.5 -37t37.5 -90t-37.5 -90t-89.5 -37t-89.5 37t-37.5 90z" />
<glyph unicode="&#xed;" horiz-adv-x="622" d="M96 154q36 11 105 20v606q-63 8 -105 21l41 153h299v-780q69 -9 105 -20l-41 -154h-363zM160 1130l168 289h262l-262 -289h-168z" />
<glyph unicode="&#xef;" horiz-adv-x="624" d="M-16 1257q0 53 37 90t90 37t90 -37t37 -90t-37 -90t-90 -37t-90 37t-37 90zM96 154q33 11 105 20v606q-67 9 -105 21l41 153h299v-780q69 -8 107 -20l-41 -154h-365zM362 1257q0 53 37 90t90 37q54 0 90.5 -37t36.5 -90t-36.5 -90t-90.5 -37q-53 0 -90 37t-37 90z" />
<glyph unicode="&#xf1;" horiz-adv-x="1171" d="M96 154l41 -154h363l41 154q-36 11 -105 20v535q77 35 124 50t99 15q57 0 80 -36.5t23 -80.5v-657h301l41 154q-35 11 -107 20v545q0 126 -69 193t-199 67q-63 0 -135.5 -26.5t-169.5 -75.5v77h-287l-41 -153q42 -13 105 -21v-606q-69 -9 -105 -20zM248 1186 q48 207 184 207q45 0 87 -16t69.5 -35.5t68.5 -35.5t84 -16q54 0 82 86l105 -43q-23 -93 -69.5 -154t-115.5 -61q-49 0 -94 16t-74 34.5t-67.5 34.5t-75.5 16q-54 0 -84 -76z" />
<glyph unicode="&#xf3;" horiz-adv-x="1007" d="M78 477q0 246 69 361q44 70 126 105.5t231 35.5t230.5 -35t125.5 -106q70 -117 70 -361q0 -243 -70 -360q-44 -71 -125.5 -106.5t-230.5 -35.5t-231 35.5t-126 106.5q-69 115 -69 360zM326 477q0 -163 28 -235q18 -46 52.5 -69t97.5 -23t96.5 23t52.5 69q29 74 29 235 q0 162 -29 236q-19 46 -52.5 69t-96.5 23t-97.5 -23t-52.5 -69q-28 -72 -28 -236zM362 1130l168 289h263l-263 -289h-168z" />
<glyph unicode="&#xf6;" horiz-adv-x="1007" d="M78 477q0 246 69 361q44 70 126 105.5t231 35.5t230.5 -35t125.5 -106q70 -117 70 -361q0 -243 -70 -360q-44 -71 -125.5 -106.5t-230.5 -35.5t-231 35.5t-126 106.5q-69 115 -69 360zM186 1257q0 53 37 90t90 37q54 0 90.5 -37t36.5 -90t-36.5 -90t-90.5 -37 q-53 0 -90 37t-37 90zM326 477q0 -163 28 -235q18 -46 52.5 -69t97.5 -23t96.5 23t52.5 69q29 74 29 235q0 162 -29 236q-19 46 -52.5 69t-96.5 23t-97.5 -23t-52.5 -69q-28 -72 -28 -236zM567 1257q0 53 37.5 90t89.5 37t89.5 -37t37.5 -90t-37.5 -90t-89.5 -37t-89.5 37 t-37.5 90z" />
<glyph unicode="&#xfa;" horiz-adv-x="1167" d="M78 801l41 153h299v-657q0 -26 6.5 -50t30.5 -45.5t63 -21.5q52 0 100 15.5t125 50.5v534q-65 8 -104 21l41 153h299v-780q71 -9 106 -20l-41 -154h-288v78q-64 -32 -106 -50.5t-98.5 -35.5t-100.5 -17q-131 0 -200 67t-69 194v544q-62 8 -104 21zM422 1130l168 289h262 l-262 -289h-168z" />
<glyph unicode="&#xfc;" horiz-adv-x="1167" d="M78 801l41 153h299v-657q0 -26 6.5 -50t30.5 -45.5t63 -21.5q52 0 100 15.5t125 50.5v534q-65 8 -104 21l41 153h299v-780q71 -9 106 -20l-41 -154h-288v78q-64 -32 -106 -50.5t-98.5 -35.5t-100.5 -17q-131 0 -200 67t-69 194v544q-62 8 -104 21zM246 1257q0 53 37 90 t90 37t90 -37t37 -90q0 -54 -37 -90.5t-90 -36.5t-90 36.5t-37 90.5zM625 1257q0 53 37.5 90t91.5 37q52 0 89.5 -37t37.5 -90q0 -54 -37 -90.5t-90 -36.5q-54 0 -91.5 36.5t-37.5 90.5z" />
<glyph unicode="&#xfd;" horiz-adv-x="1128" d="M33 801l41 153h250l260 -706l176 532q-31 2 -92 17l41 157h346l41 -153q-38 -12 -105 -21l-391 -1069q-38 -94 -120.5 -145t-192.5 -51q-103 0 -224 53l46 168q88 -35 129 -41q18 -2 36 -2q38 0 69.5 24t49.5 62l82 221h-47l-291 780q-62 8 -104 21zM406 1130l167 289 h263l-263 -289h-167z" />
<glyph unicode="&#xff;" horiz-adv-x="1128" d="M33 801l41 153h250l260 -706l176 532q-31 2 -92 17l41 157h346l41 -153q-38 -12 -105 -21l-391 -1069q-38 -94 -120.5 -145t-192.5 -51q-103 0 -224 53l46 168q88 -35 129 -41q18 -2 36 -2q38 0 69.5 24t49.5 62l82 221h-47l-291 780q-62 8 -104 21zM248 1257q0 53 37 90 t90 37t90 -37t37 -90t-37 -90t-90 -37t-90 37t-37 90zM627 1257q0 53 37.5 90t89.5 37q54 0 90.5 -37t36.5 -90t-36.5 -90t-90.5 -37q-52 0 -89.5 37t-37.5 90z" />
<glyph unicode="&#x178;" horiz-adv-x="1525" d="M51 1208l45 164h428l45 -168q-56 -15 -100 -18l328 -430l301 430q-46 3 -101 18l45 168h388l45 -164q-57 -18 -115 -22l-473 -621v-377q64 -7 114 -22l-45 -166h-399l-43 166q55 15 123 22v377l-471 621q-61 3 -115 22zM444 1675q0 53 37 90t90 37q54 0 91.5 -37 t37.5 -90t-37.5 -90t-91.5 -37q-53 0 -90 37t-37 90zM825 1675q0 53 37.5 90t89.5 37t89.5 -37t37.5 -90t-37.5 -90t-89.5 -37t-89.5 37t-37.5 90z" />
<glyph unicode="&#x2000;" horiz-adv-x="918" />
<glyph unicode="&#x2001;" horiz-adv-x="1837" />
<glyph unicode="&#x2002;" horiz-adv-x="918" />
<glyph unicode="&#x2003;" horiz-adv-x="1837" />
<glyph unicode="&#x2004;" horiz-adv-x="612" />
<glyph unicode="&#x2005;" horiz-adv-x="459" />
<glyph unicode="&#x2006;" horiz-adv-x="306" />
<glyph unicode="&#x2007;" horiz-adv-x="306" />
<glyph unicode="&#x2008;" horiz-adv-x="229" />
<glyph unicode="&#x2009;" horiz-adv-x="367" />
<glyph unicode="&#x200a;" horiz-adv-x="102" />
<glyph unicode="&#x2010;" d="M86 401v201h557v-201h-557z" />
<glyph unicode="&#x2011;" d="M86 401v201h557v-201h-557z" />
<glyph unicode="&#x2012;" d="M86 401v201h557v-201h-557z" />
<glyph unicode="&#x2013;" d="M86 401v201h557v-201h-557z" />
<glyph unicode="&#x2014;" horiz-adv-x="1841" d="M86 426v152h1669v-152h-1669z" />
<glyph unicode="&#x2018;" horiz-adv-x="514" d="M63 948l119 447h269l-242 -447h-146z" />
<glyph unicode="&#x2019;" horiz-adv-x="514" d="M63 948l119 447h269l-242 -447h-146z" />
<glyph unicode="&#x201c;" horiz-adv-x="892" d="M63 948l119 447h269l-242 -447h-146zM442 948l119 447h268l-241 -447h-146z" />
<glyph unicode="&#x201d;" horiz-adv-x="892" d="M63 948l119 447h269l-242 -447h-146zM442 948l119 447h268l-241 -447h-146z" />
<glyph unicode="&#x202f;" horiz-adv-x="367" />
<glyph unicode="&#x205f;" horiz-adv-x="459" />
<glyph unicode="&#x20ac;" horiz-adv-x="1165" d="M78 444v127h807v-127h-418q18 -147 90 -225q34 -33 83 -51t95 -18q108 0 221 22q3 54 21 104l151 -40v-197q-222 -64 -401 -64q-282 0 -405 160q-90 124 -107 309h-137zM78 700v127h137q17 180 107 301q123 160 405 160q183 0 401 -63v-197l-151 -41q-18 49 -21 105 q-108 24 -221 24q-46 0 -95 -19t-83 -53q-69 -74 -90 -217h418v-127h-807z" />
<glyph unicode="&#x25fc;" horiz-adv-x="952" d="M0 0v952h952v-952h-952z" />
</font>
</defs>
</svg>
